<?xml version="1.0" encoding="UTF-8" standalone="no"?>
<!DOCTYPE svg PUBLIC "-//W3C//DTD SVG 1.1//EN"
 "http://www.w3.org/Graphics/SVG/1.1/DTD/svg11.dtd">
<!-- Generated by graphviz version 2.43.0 (0)
 -->
<!-- Title: io.github.fruitcropxl.output.util.SchemaMetadataWriter Pages: 1 -->
<svg width="171pt" height="179pt"
 viewBox="0.00 0.00 171.00 179.00" xmlns="http://www.w3.org/2000/svg" xmlns:xlink="http://www.w3.org/1999/xlink">
<g id="graph0" class="graph" transform="scale(1 1) rotate(0) translate(4 175)">
<title>io.github.fruitcropxl.output.util.SchemaMetadataWriter</title>
<!-- Node1 -->
<g id="Node000001" class="node">
<title>Node1</title>
<g id="a_Node000001"><a xlink:title="Handles writing the schema metadata of the given POJO type.">
<polygon fill="#999999" stroke="transparent" points="163,-75 0,-75 0,0 163,0 163,-75"/>
<text text-anchor="start" x="5.5" y="-62.5" font-family="Helvetica,sans-Serif" font-size="10.00">io.github.fruitcropxl.output.util.</text>
<text text-anchor="start" x="24" y="-51.5" font-family="Helvetica,sans-Serif" font-size="10.00">SchemaMetadataWriter</text>
<text text-anchor="start" x="80" y="-36.5" font-family="Helvetica,sans-Serif" font-size="10.00"> </text>
<text text-anchor="start" x="9" y="-21.5" font-family="Helvetica,sans-Serif" font-size="10.00">+</text>
<text text-anchor="start" x="26.5" y="-21.5" font-family="Helvetica,sans-Serif" font-size="10.00">SchemaMetadataWriter()</text>
<text text-anchor="start" x="9" y="-6.5" font-family="Helvetica,sans-Serif" font-size="10.00">+</text>
<text text-anchor="start" x="26.5" y="-6.5" font-family="Helvetica,sans-Serif" font-size="10.00">writeMetadata()</text>
<polygon fill="#666666" stroke="#666666" points="0.5,-46.5 0.5,-46.5 163.5,-46.5 163.5,-46.5 0.5,-46.5"/>
<polygon fill="#666666" stroke="#666666" points="0.5,-31.5 0.5,-31.5 163.5,-31.5 163.5,-31.5 0.5,-31.5"/>
<polygon fill="none" stroke="#666666" points="0,0 0,-75 163,-75 163,0 0,0"/>
</a>
</g>
</g>
<!-- Node2 -->
<g id="Node000002" class="node">
<title>Node2</title>
<g id="a_Node000002"><a xlink:title=" ">
<polygon fill="white" stroke="transparent" points="68,-171 29,-171 29,-122 68,-122 68,-171"/>
<text text-anchor="start" x="34.5" y="-158.5" font-family="Helvetica,sans-Serif" font-size="10.00">String</text>
<text text-anchor="start" x="47" y="-143.5" font-family="Helvetica,sans-Serif" font-size="10.00"> </text>
<text text-anchor="start" x="47" y="-128.5" font-family="Helvetica,sans-Serif" font-size="10.00"> </text>
<polygon fill="#666666" stroke="#666666" points="29.5,-153.5 29.5,-153.5 68.5,-153.5 68.5,-153.5 29.5,-153.5"/>
<polygon fill="#666666" stroke="#666666" points="29.5,-138.5 29.5,-138.5 68.5,-138.5 68.5,-138.5 29.5,-138.5"/>
<polygon fill="none" stroke="#666666" points="29,-122 29,-171 68,-171 68,-122 29,-122"/>
</a>
</g>
</g>
<!-- Node2&#45;&gt;Node1 -->
<g id="edge1_Node000001_Node000002" class="edge">
<title>Node2&#45;&gt;Node1</title>
<g id="a_edge1_Node000001_Node000002"><a xlink:title=" ">
<path fill="none" stroke="#63b8ff" d="M46.42,-121.87C46.27,-112.7 46.9,-102.21 49.5,-93 50.14,-90.74 50.89,-88.48 51.74,-86.24"/>
<polygon fill="none" stroke="#63b8ff" points="51.77,-86.16 50.54,-79.05 56.63,-75.19 57.86,-82.29 51.77,-86.16"/>
</a>
</g>
<text text-anchor="middle" x="71" y="-96" font-family="Helvetica,sans-Serif" font-size="10.00" fill="grey"> &#45;filePath</text>
</g>
<!-- Node3 -->
<g id="Node000003" class="node">
<title>Node3</title>
<g id="a_Node000003"><a xlink:title=" ">
<polygon fill="white" stroke="transparent" points="133,-171 96,-171 96,-122 133,-122 133,-171"/>
<text text-anchor="start" x="101.5" y="-158.5" font-family="Helvetica,sans-Serif" font-size="10.00">Class</text>
<text text-anchor="start" x="113" y="-143.5" font-family="Helvetica,sans-Serif" font-size="10.00"> </text>
<text text-anchor="start" x="113" y="-128.5" font-family="Helvetica,sans-Serif" font-size="10.00"> </text>
<polygon fill="#666666" stroke="#666666" points="96.5,-153.5 96.5,-153.5 133.5,-153.5 133.5,-153.5 96.5,-153.5"/>
<polygon fill="#666666" stroke="#666666" points="96.5,-138.5 96.5,-138.5 133.5,-138.5 133.5,-138.5 96.5,-138.5"/>
<polygon fill="none" stroke="#666666" points="96,-122 96,-171 133,-171 133,-122 96,-122"/>
</a>
</g>
</g>
<!-- Node3&#45;&gt;Node1 -->
<g id="edge2_Node000001_Node000003" class="edge">
<title>Node3&#45;&gt;Node1</title>
<g id="a_edge2_Node000001_Node000003"><a xlink:title=" ">
<path fill="none" stroke="#63b8ff" d="M107.18,-121.75C103.98,-111.4 100.11,-98.86 96.36,-86.69"/>
<polygon fill="none" stroke="#63b8ff" points="96.36,-86.68 90.77,-82.13 92.82,-75.22 98.41,-79.77 96.36,-86.68"/>
</a>
</g>
<text text-anchor="middle" x="126" y="-96" font-family="Helvetica,sans-Serif" font-size="10.00" fill="grey"> &#45;pojoType</text>
</g>
</g>
</svg>
