<?xml version="1.0" encoding="UTF-8" standalone="no"?>
<!DOCTYPE svg PUBLIC "-//W3C//DTD SVG 1.1//EN"
 "http://www.w3.org/Graphics/SVG/1.1/DTD/svg11.dtd">
<!-- Generated by graphviz version 2.43.0 (0)
 -->
<!-- Title: io.github.fruitcropxl.output.util.StepwiseCsvWriter.getHeaderlessCsv Pages: 1 -->
<svg width="703pt" height="56pt"
 viewBox="0.00 0.00 703.00 56.00" xmlns="http://www.w3.org/2000/svg" xmlns:xlink="http://www.w3.org/1999/xlink">
<g id="graph0" class="graph" transform="scale(1 1) rotate(0) translate(4 52)">
<title>io.github.fruitcropxl.output.util.StepwiseCsvWriter.getHeaderlessCsv</title>
<!-- Node1 -->
<g id="Node000001" class="node">
<title>Node1</title>
<g id="a_Node000001"><a xlink:title="Returns the object as CSV without a header row.">
<polygon fill="#999999" stroke="#666666" points="695,-30 495,-30 495,0 695,0 695,-30"/>
<text text-anchor="start" x="503" y="-18" font-family="Helvetica,sans-Serif" font-size="10.00">io.github.fruitcropxl.output.util.</text>
<text text-anchor="middle" x="595" y="-7" font-family="Helvetica,sans-Serif" font-size="10.00">StepwiseCsvWriter.getHeaderlessCsv</text>
</a>
</g>
</g>
<!-- Node2 -->
<g id="Node000002" class="node">
<title>Node2</title>
<g id="a_Node000002"><a xlink:href="classio_1_1github_1_1fruitcropxl_1_1output_1_1util_1_1StepwiseCsvWriter_ae66619040b769e1790e6384864c7539a.html#ae66619040b769e1790e6384864c7539a" target="_top" xlink:title="Write object to CSV.">
<polygon fill="white" stroke="#666666" points="459,-30 290,-30 290,0 459,0 459,-30"/>
<text text-anchor="start" x="298" y="-18" font-family="Helvetica,sans-Serif" font-size="10.00">io.github.fruitcropxl.output.util.</text>
<text text-anchor="middle" x="374.5" y="-7" font-family="Helvetica,sans-Serif" font-size="10.00">StepwiseCsvWriter.write</text>
</a>
</g>
</g>
<!-- Node1&#45;&gt;Node2 -->
<g id="edge1_Node000001_Node000002" class="edge">
<title>Node1&#45;&gt;Node2</title>
<g id="a_edge1_Node000001_Node000002"><a xlink:title=" ">
<path fill="none" stroke="#63b8ff" d="M484.85,-15C476.22,-15 467.58,-15 459.16,-15"/>
<polygon fill="#63b8ff" stroke="#63b8ff" points="484.98,-18.5 494.98,-15 484.98,-11.5 484.98,-18.5"/>
</a>
</g>
</g>
<!-- Node2&#45;&gt;Node2 -->
<g id="edge3_Node000002_Node000002" class="edge">
<title>Node2&#45;&gt;Node2</title>
<g id="a_edge3_Node000002_Node000002"><a xlink:title=" ">
<path fill="none" stroke="#63b8ff" d="M413.01,-40.6C407.75,-44.97 394.91,-48 374.5,-48 340.12,-48 327.23,-39.41 335.83,-30.28"/>
<polygon fill="#63b8ff" stroke="#63b8ff" points="416.51,-40.33 413.17,-30.28 409.51,-40.22 416.51,-40.33"/>
</a>
</g>
</g>
<!-- Node3 -->
<g id="Node000003" class="node">
<title>Node3</title>
<g id="a_Node000003"><a xlink:href="classio_1_1github_1_1fruitcropxl_1_1output_1_1util_1_1StepwiseCsvWriterTest_a0b8d2a971651d0ebf3ca655b5ae6bb2b.html#a0b8d2a971651d0ebf3ca655b5ae6bb2b" target="_top" xlink:title=" ">
<polygon fill="white" stroke="#666666" points="254,-30 0,-30 0,0 254,0 254,-30"/>
<text text-anchor="start" x="8" y="-18" font-family="Helvetica,sans-Serif" font-size="10.00">io.github.fruitcropxl.output.util.</text>
<text text-anchor="middle" x="127" y="-7" font-family="Helvetica,sans-Serif" font-size="10.00">StepwiseCsvWriterTest.testSchemaConfiguration</text>
</a>
</g>
</g>
<!-- Node2&#45;&gt;Node3 -->
<g id="edge2_Node000002_Node000003" class="edge">
<title>Node2&#45;&gt;Node3</title>
<g id="a_edge2_Node000002_Node000003"><a xlink:title=" ">
<path fill="none" stroke="#63b8ff" d="M279.58,-15C271.21,-15 262.64,-15 254.05,-15"/>
<polygon fill="#63b8ff" stroke="#63b8ff" points="279.7,-18.5 289.7,-15 279.7,-11.5 279.7,-18.5"/>
</a>
</g>
</g>
</g>
</svg>
