<?xml version="1.0" encoding="UTF-8" standalone="no"?>
<!DOCTYPE svg PUBLIC "-//W3C//DTD SVG 1.1//EN"
 "http://www.w3.org/Graphics/SVG/1.1/DTD/svg11.dtd">
<!-- Generated by graphviz version 2.43.0 (0)
 -->
<!-- Title: io.github.fruitcropxl.output.model.Fruit Pages: 1 -->
<svg width="186pt" height="164pt"
 viewBox="0.00 0.00 186.00 164.00" xmlns="http://www.w3.org/2000/svg" xmlns:xlink="http://www.w3.org/1999/xlink">
<g id="graph0" class="graph" transform="scale(1 1) rotate(0) translate(4 160)">
<title>io.github.fruitcropxl.output.model.Fruit</title>
<!-- Node1 -->
<g id="Node000001" class="node">
<title>Node1</title>
<g id="a_Node000001"><a xlink:title=" ">
<polygon fill="#999999" stroke="transparent" points="178,-60 0,-60 0,0 178,0 178,-60"/>
<text text-anchor="start" x="5" y="-48" font-family="Helvetica,sans-Serif" font-size="10.00">io.github.fruitcropxl.output.model.</text>
<text text-anchor="start" x="78" y="-37" font-family="Helvetica,sans-Serif" font-size="10.00">Fruit</text>
<text text-anchor="start" x="87" y="-22" font-family="Helvetica,sans-Serif" font-size="10.00"> </text>
<text text-anchor="start" x="35.5" y="-7" font-family="Helvetica,sans-Serif" font-size="10.00">+</text>
<text text-anchor="start" x="80" y="-7" font-family="Helvetica,sans-Serif" font-size="10.00">Fruit()</text>
<polygon fill="#666666" stroke="#666666" points="0,-32 0,-32 178,-32 178,-32 0,-32"/>
<polygon fill="#666666" stroke="#666666" points="0,-17 0,-17 178,-17 178,-17 0,-17"/>
<polygon fill="none" stroke="#666666" points="0,0 0,-60 178,-60 178,0 0,0"/>
</a>
</g>
</g>
<!-- Node2 -->
<g id="Node000002" class="node">
<title>Node2</title>
<g id="a_Node000002"><a xlink:title=" ">
<polygon fill="white" stroke="transparent" points="74.5,-156 51.5,-156 51.5,-107 74.5,-107 74.5,-156"/>
<text text-anchor="start" x="57" y="-143.5" font-family="Helvetica,sans-Serif" font-size="10.00">int</text>
<text text-anchor="start" x="61.5" y="-128.5" font-family="Helvetica,sans-Serif" font-size="10.00"> </text>
<text text-anchor="start" x="61.5" y="-113.5" font-family="Helvetica,sans-Serif" font-size="10.00"> </text>
<polygon fill="#666666" stroke="#666666" points="52,-138.5 52,-138.5 75,-138.5 75,-138.5 52,-138.5"/>
<polygon fill="#666666" stroke="#666666" points="52,-123.5 52,-123.5 75,-123.5 75,-123.5 52,-123.5"/>
<polygon fill="none" stroke="#666666" points="51.5,-107 51.5,-156 74.5,-156 74.5,-107 51.5,-107"/>
</a>
</g>
</g>
<!-- Node2&#45;&gt;Node1 -->
<g id="edge1_Node000001_Node000002" class="edge">
<title>Node2&#45;&gt;Node1</title>
<g id="a_edge1_Node000001_Node000002"><a xlink:title=" ">
<path fill="none" stroke="#63b8ff" d="M66.15,-106.79C67.6,-97.71 69.54,-87.3 72,-78 72.56,-75.89 73.17,-73.74 73.82,-71.58"/>
<polygon fill="none" stroke="#63b8ff" points="73.85,-71.49 71.91,-64.54 77.58,-60.08 79.52,-67.02 73.85,-71.49"/>
</a>
</g>
<text text-anchor="middle" x="82.5" y="-81" font-family="Helvetica,sans-Serif" font-size="10.00" fill="grey"> +id</text>
</g>
<!-- Node3 -->
<g id="Node000003" class="node">
<title>Node3</title>
<g id="a_Node000003"><a xlink:title=" ">
<polygon fill="white" stroke="transparent" points="137,-156 93,-156 93,-107 137,-107 137,-156"/>
<text text-anchor="start" x="98" y="-143.5" font-family="Helvetica,sans-Serif" font-size="10.00">double</text>
<text text-anchor="start" x="113" y="-128.5" font-family="Helvetica,sans-Serif" font-size="10.00"> </text>
<text text-anchor="start" x="113" y="-113.5" font-family="Helvetica,sans-Serif" font-size="10.00"> </text>
<polygon fill="#666666" stroke="#666666" points="93,-138.5 93,-138.5 137,-138.5 137,-138.5 93,-138.5"/>
<polygon fill="#666666" stroke="#666666" points="93,-123.5 93,-123.5 137,-123.5 137,-123.5 93,-123.5"/>
<polygon fill="none" stroke="#666666" points="93,-107 93,-156 137,-156 137,-107 93,-107"/>
</a>
</g>
</g>
<!-- Node3&#45;&gt;Node1 -->
<g id="edge2_Node000001_Node000003" class="edge">
<title>Node3&#45;&gt;Node1</title>
<g id="a_edge2_Node000001_Node000003"><a xlink:title=" ">
<path fill="none" stroke="#63b8ff" d="M108.84,-106.92C106.09,-96.4 102.77,-83.71 99.64,-71.73"/>
<polygon fill="none" stroke="#63b8ff" points="99.64,-71.71 94.25,-66.92 96.6,-60.1 101.99,-64.9 99.64,-71.71"/>
</a>
</g>
<text text-anchor="middle" x="132.5" y="-81" font-family="Helvetica,sans-Serif" font-size="10.00" fill="grey"> +property1</text>
</g>
</g>
</svg>
