<?xml version="1.0" encoding="UTF-8" standalone="no"?>
<!DOCTYPE svg PUBLIC "-//W3C//DTD SVG 1.1//EN"
 "http://www.w3.org/Graphics/SVG/1.1/DTD/svg11.dtd">
<!-- Generated by graphviz version 2.43.0 (0)
 -->
<!-- Title: io.github.fruitcropxl.output.schema.ExtendedNumberSchema Pages: 1 -->
<svg width="299pt" height="197pt"
 viewBox="0.00 0.00 298.50 197.00" xmlns="http://www.w3.org/2000/svg" xmlns:xlink="http://www.w3.org/1999/xlink">

<svg id="main" version="1.1" xmlns="http://www.w3.org/2000/svg" xmlns:xlink="http://www.w3.org/1999/xlink" xml:space="preserve" onload="init(evt)">
<style type="text/css"><![CDATA[
.node, .edge {opacity: 0.7;}
.node.selected, .edge.selected {opacity: 1;}
.edge:hover path { stroke: red; }
.edge:hover polygon { stroke: red; fill: red; }
]]></style>
<script type="application/ecmascript" xlink:href="svg.min.js"/>
<svg id="graph" class="graph">
<g id="graph0" class="graph" transform="scale(1 1) rotate(0) translate(4 193)">
<title>io.github.fruitcropxl.output.schema.ExtendedNumberSchema</title>
<!-- Node1 -->
<g id="Node000001" class="node">
<title>Node1</title>
<g id="a_Node000001"><a xlink:title=" ">
<polygon fill="#999999" stroke="transparent" points="219,-60 34,-60 34,0 219,0 219,-60"/>
<text text-anchor="start" x="39.5" y="-48" font-family="Helvetica,sans-Serif" font-size="10.00">io.github.fruitcropxl.output.schema.</text>
<text text-anchor="start" x="65" y="-37" font-family="Helvetica,sans-Serif" font-size="10.00">ExtendedNumberSchema</text>
<text text-anchor="start" x="125" y="-22" font-family="Helvetica,sans-Serif" font-size="10.00"> </text>
<text text-anchor="start" x="47.5" y="-7" font-family="Helvetica,sans-Serif" font-size="10.00">+</text>
<text text-anchor="start" x="69.5" y="-7" font-family="Helvetica,sans-Serif" font-size="10.00">enrichWithBeanProperty()</text>
<polygon fill="#666666" stroke="#666666" points="34.5,-32 34.5,-32 219.5,-32 219.5,-32 34.5,-32"/>
<polygon fill="#666666" stroke="#666666" points="34.5,-17 34.5,-17 219.5,-17 219.5,-17 34.5,-17"/>
<polygon fill="none" stroke="#666666" points="34,0 34,-60 219,-60 219,0 34,0"/>
</a>
</g>
</g>
<!-- Node2 -->
<g id="Node000002" class="node">
<title>Node2</title>
<g id="a_Node000002"><a xlink:href="classNumberSchema.html" target="_top" xlink:title=" ">
<polygon fill="white" stroke="transparent" points="89,-189 0,-189 0,-140 89,-140 89,-189"/>
<text text-anchor="start" x="5.5" y="-176.5" font-family="Helvetica,sans-Serif" font-size="10.00">NumberSchema</text>
<text text-anchor="start" x="43" y="-161.5" font-family="Helvetica,sans-Serif" font-size="10.00"> </text>
<text text-anchor="start" x="43" y="-146.5" font-family="Helvetica,sans-Serif" font-size="10.00"> </text>
<polygon fill="#666666" stroke="#666666" points="0.5,-171.5 0.5,-171.5 89.5,-171.5 89.5,-171.5 0.5,-171.5"/>
<polygon fill="#666666" stroke="#666666" points="0.5,-156.5 0.5,-156.5 89.5,-156.5 89.5,-156.5 0.5,-156.5"/>
<polygon fill="none" stroke="#666666" points="0,-140 0,-189 89,-189 89,-140 0,-140"/>
</a>
</g>
</g>
<!-- Node2&#45;&gt;Node1 -->
<g id="edge1_Node000001_Node000002" class="edge">
<title>Node2&#45;&gt;Node1</title>
<g id="a_edge1_Node000001_Node000002"><a xlink:title=" ">
<path fill="none" stroke="#63b8ff" d="M64.46,-131.24C77.92,-109.5 95.52,-81.06 108.53,-60.03"/>
<polygon fill="none" stroke="#63b8ff" points="61.45,-129.47 59.16,-139.81 67.4,-133.15 61.45,-129.47"/>
</a>
</g>
</g>
<!-- Node3 -->
<g id="Node000003" class="node">
<title>Node3</title>
<g id="a_Node000003"><a xlink:title=" ">
<polygon fill="white" stroke="transparent" points="146,-189 107,-189 107,-140 146,-140 146,-189"/>
<text text-anchor="start" x="112.5" y="-176.5" font-family="Helvetica,sans-Serif" font-size="10.00">String</text>
<text text-anchor="start" x="125" y="-161.5" font-family="Helvetica,sans-Serif" font-size="10.00"> </text>
<text text-anchor="start" x="125" y="-146.5" font-family="Helvetica,sans-Serif" font-size="10.00"> </text>
<polygon fill="#666666" stroke="#666666" points="107.5,-171.5 107.5,-171.5 146.5,-171.5 146.5,-171.5 107.5,-171.5"/>
<polygon fill="#666666" stroke="#666666" points="107.5,-156.5 107.5,-156.5 146.5,-156.5 146.5,-156.5 107.5,-156.5"/>
<polygon fill="none" stroke="#666666" points="107,-140 107,-189 146,-189 146,-140 107,-140"/>
</a>
</g>
</g>
<!-- Node3&#45;&gt;Node1 -->
<g id="edge2_Node000001_Node000003" class="edge">
<title>Node3&#45;&gt;Node1</title>
<g id="a_edge2_Node000001_Node000003"><a xlink:title=" ">
<path fill="none" stroke="#63b8ff" d="M126.5,-139.81C126.5,-121.06 126.5,-94.41 126.5,-72.18"/>
<polygon fill="none" stroke="#63b8ff" points="126.5,-72.03 122.5,-66.03 126.5,-60.03 130.5,-66.03 126.5,-72.03"/>
</a>
</g>
<text text-anchor="middle" x="163" y="-114" font-family="Helvetica,sans-Serif" font-size="10.00" fill="grey"> +name</text>
<text text-anchor="middle" x="163" y="-103" font-family="Helvetica,sans-Serif" font-size="10.00" fill="grey">+propertyType</text>
<text text-anchor="middle" x="163" y="-92" font-family="Helvetica,sans-Serif" font-size="10.00" fill="grey">+tags</text>
<text text-anchor="middle" x="163" y="-81" font-family="Helvetica,sans-Serif" font-size="10.00" fill="grey">+unit</text>
</g>
<!-- Node4 -->
<g id="Node000004" class="node">
<title>Node4</title>
<g id="a_Node000004"><a xlink:title=" ">
<polygon fill="white" stroke="transparent" points="244.5,-189 200.5,-189 200.5,-140 244.5,-140 244.5,-189"/>
<text text-anchor="start" x="205.5" y="-176.5" font-family="Helvetica,sans-Serif" font-size="10.00">double</text>
<text text-anchor="start" x="220.5" y="-161.5" font-family="Helvetica,sans-Serif" font-size="10.00"> </text>
<text text-anchor="start" x="220.5" y="-146.5" font-family="Helvetica,sans-Serif" font-size="10.00"> </text>
<polygon fill="#666666" stroke="#666666" points="200.5,-171.5 200.5,-171.5 244.5,-171.5 244.5,-171.5 200.5,-171.5"/>
<polygon fill="#666666" stroke="#666666" points="200.5,-156.5 200.5,-156.5 244.5,-156.5 244.5,-156.5 200.5,-156.5"/>
<polygon fill="none" stroke="#666666" points="200.5,-140 200.5,-189 244.5,-189 244.5,-140 200.5,-140"/>
</a>
</g>
</g>
<!-- Node4&#45;&gt;Node1 -->
<g id="edge3_Node000001_Node000004" class="edge">
<title>Node4&#45;&gt;Node1</title>
<g id="a_edge3_Node000001_Node000004"><a xlink:title=" ">
<path fill="none" stroke="#63b8ff" d="M221.09,-139.74C218.96,-121.37 213.65,-96.1 200.5,-78 198.01,-74.57 195.18,-71.33 192.13,-68.28"/>
<polygon fill="none" stroke="#63b8ff" points="191.97,-68.15 184.83,-67.16 182.99,-60.19 190.13,-61.17 191.97,-68.15"/>
</a>
</g>
<text text-anchor="middle" x="254" y="-97.5" font-family="Helvetica,sans-Serif" font-size="10.00" fill="grey"> +defaultValue</text>
</g>
</g>
</svg>
</svg>

<style type='text/css'>
<![CDATA[
[data-mouse-over-selected='false'] { opacity: 0.7; }
[data-mouse-over-selected='true']  { opacity: 1.0; }
]]>
</style>
<script type="application/ecmascript"><![CDATA[
document.addEventListener('DOMContentLoaded', (event) => {
  highlightEdges();
  highlightAdjacentNodes();
});
]]></script>
</svg>
