<?xml version="1.0" encoding="UTF-8" standalone="no"?>
<!DOCTYPE svg PUBLIC "-//W3C//DTD SVG 1.1//EN"
 "http://www.w3.org/Graphics/SVG/1.1/DTD/svg11.dtd">
<!-- Generated by graphviz version 2.43.0 (0)
 -->
<!-- Title: io.github.fruitcropxl.output.model.Iris Pages: 1 -->
<svg width="201pt" height="186pt"
 viewBox="0.00 0.00 201.00 186.00" xmlns="http://www.w3.org/2000/svg" xmlns:xlink="http://www.w3.org/1999/xlink">

<svg id="main" version="1.1" xmlns="http://www.w3.org/2000/svg" xmlns:xlink="http://www.w3.org/1999/xlink" xml:space="preserve" onload="init(evt)">
<style type="text/css"><![CDATA[
.node, .edge {opacity: 0.7;}
.node.selected, .edge.selected {opacity: 1;}
.edge:hover path { stroke: red; }
.edge:hover polygon { stroke: red; fill: red; }
]]></style>
<script type="application/ecmascript" xlink:href="svg.min.js"/>
<svg id="graph" class="graph">
<g id="graph0" class="graph" transform="scale(1 1) rotate(0) translate(4 182)">
<title>io.github.fruitcropxl.output.model.Iris</title>
<!-- Node1 -->
<g id="Node000001" class="node">
<title>Node1</title>
<g id="a_Node000001"><a xlink:title=" ">
<polygon fill="#999999" stroke="transparent" points="193,-49 0,-49 0,0 193,0 193,-49"/>
<text text-anchor="start" x="5.5" y="-36.5" font-family="Helvetica,sans-Serif" font-size="10.00">io.github.fruitcropxl.output.model.Iris</text>
<text text-anchor="start" x="95" y="-21.5" font-family="Helvetica,sans-Serif" font-size="10.00"> </text>
<text text-anchor="start" x="41.5" y="-6.5" font-family="Helvetica,sans-Serif" font-size="10.00">+</text>
<text text-anchor="start" x="91.5" y="-6.5" font-family="Helvetica,sans-Serif" font-size="10.00">Iris()</text>
<polygon fill="#666666" stroke="#666666" points="0.5,-31.5 0.5,-31.5 193.5,-31.5 193.5,-31.5 0.5,-31.5"/>
<polygon fill="#666666" stroke="#666666" points="0.5,-16.5 0.5,-16.5 193.5,-16.5 193.5,-16.5 0.5,-16.5"/>
<polygon fill="none" stroke="#666666" points="0,0 0,-49 193,-49 193,0 0,0"/>
</a>
</g>
</g>
<!-- Node2 -->
<g id="Node000002" class="node">
<title>Node2</title>
<g id="a_Node000002"><a xlink:title=" ">
<polygon fill="white" stroke="transparent" points="82,-178 59,-178 59,-129 82,-129 82,-178"/>
<text text-anchor="start" x="64.5" y="-165.5" font-family="Helvetica,sans-Serif" font-size="10.00">int</text>
<text text-anchor="start" x="69" y="-150.5" font-family="Helvetica,sans-Serif" font-size="10.00"> </text>
<text text-anchor="start" x="69" y="-135.5" font-family="Helvetica,sans-Serif" font-size="10.00"> </text>
<polygon fill="#666666" stroke="#666666" points="59.5,-160.5 59.5,-160.5 82.5,-160.5 82.5,-160.5 59.5,-160.5"/>
<polygon fill="#666666" stroke="#666666" points="59.5,-145.5 59.5,-145.5 82.5,-145.5 82.5,-145.5 59.5,-145.5"/>
<polygon fill="none" stroke="#666666" points="59,-129 59,-178 82,-178 82,-129 59,-129"/>
</a>
</g>
</g>
<!-- Node2&#45;&gt;Node1 -->
<g id="edge1_Node000001_Node000002" class="edge">
<title>Node2&#45;&gt;Node1</title>
<g id="a_edge1_Node000001_Node000002"><a xlink:title=" ">
<path fill="none" stroke="#63b8ff" d="M71.18,-128.96C72.12,-111.61 74.32,-87.55 79.5,-67 80.03,-64.88 80.65,-62.73 81.34,-60.58"/>
<polygon fill="none" stroke="#63b8ff" points="81.35,-60.54 79.63,-53.53 85.42,-49.25 87.15,-56.25 81.35,-60.54"/>
</a>
</g>
<text text-anchor="middle" x="90" y="-86.5" font-family="Helvetica,sans-Serif" font-size="10.00" fill="grey"> +id</text>
</g>
<!-- Node3 -->
<g id="Node000003" class="node">
<title>Node3</title>
<g id="a_Node000003"><a xlink:title=" ">
<polygon fill="white" stroke="transparent" points="144.5,-178 100.5,-178 100.5,-129 144.5,-129 144.5,-178"/>
<text text-anchor="start" x="105.5" y="-165.5" font-family="Helvetica,sans-Serif" font-size="10.00">double</text>
<text text-anchor="start" x="120.5" y="-150.5" font-family="Helvetica,sans-Serif" font-size="10.00"> </text>
<text text-anchor="start" x="120.5" y="-135.5" font-family="Helvetica,sans-Serif" font-size="10.00"> </text>
<polygon fill="#666666" stroke="#666666" points="100.5,-160.5 100.5,-160.5 144.5,-160.5 144.5,-160.5 100.5,-160.5"/>
<polygon fill="#666666" stroke="#666666" points="100.5,-145.5 100.5,-145.5 144.5,-145.5 144.5,-145.5 100.5,-145.5"/>
<polygon fill="none" stroke="#666666" points="100.5,-129 100.5,-178 144.5,-178 144.5,-129 100.5,-129"/>
</a>
</g>
</g>
<!-- Node3&#45;&gt;Node1 -->
<g id="edge2_Node000001_Node000003" class="edge">
<title>Node3&#45;&gt;Node1</title>
<g id="a_edge2_Node000001_Node000003"><a xlink:title=" ">
<path fill="none" stroke="#63b8ff" d="M117.67,-128.91C113.79,-109.96 108.28,-83.04 103.85,-61.41"/>
<polygon fill="none" stroke="#63b8ff" points="103.8,-61.15 98.68,-56.08 101.39,-49.39 106.51,-54.47 103.8,-61.15"/>
</a>
</g>
<text text-anchor="middle" x="147.5" y="-103" font-family="Helvetica,sans-Serif" font-size="10.00" fill="grey"> +petalLength</text>
<text text-anchor="middle" x="147.5" y="-92" font-family="Helvetica,sans-Serif" font-size="10.00" fill="grey">+petalWidth</text>
<text text-anchor="middle" x="147.5" y="-81" font-family="Helvetica,sans-Serif" font-size="10.00" fill="grey">+sepalLength</text>
<text text-anchor="middle" x="147.5" y="-70" font-family="Helvetica,sans-Serif" font-size="10.00" fill="grey">+sepalWidth</text>
</g>
</g>
</svg>
</svg>

<style type='text/css'>
<![CDATA[
[data-mouse-over-selected='false'] { opacity: 0.7; }
[data-mouse-over-selected='true']  { opacity: 1.0; }
]]>
</style>
<script type="application/ecmascript"><![CDATA[
document.addEventListener('DOMContentLoaded', (event) => {
  highlightEdges();
  highlightAdjacentNodes();
});
]]></script>
</svg>
