<?xml version="1.0" encoding="UTF-8" standalone="no"?>
<!DOCTYPE svg PUBLIC "-//W3C//DTD SVG 1.1//EN"
 "http://www.w3.org/Graphics/SVG/1.1/DTD/svg11.dtd">
<!-- Generated by graphviz version 2.43.0 (0)
 -->
<!-- Title: io.github.fruitcropxl.output.schema.ExtendedValidationSchemaFactoryWrapper Pages: 1 -->
<svg width="229pt" height="220pt"
 viewBox="0.00 0.00 229.00 220.00" xmlns="http://www.w3.org/2000/svg" xmlns:xlink="http://www.w3.org/1999/xlink">

<svg id="main" version="1.1" xmlns="http://www.w3.org/2000/svg" xmlns:xlink="http://www.w3.org/1999/xlink" xml:space="preserve" onload="init(evt)">
<style type="text/css"><![CDATA[
.node, .edge {opacity: 0.7;}
.node.selected, .edge.selected {opacity: 1;}
.edge:hover path { stroke: red; }
.edge:hover polygon { stroke: red; fill: red; }
]]></style>
<script type="application/ecmascript" xlink:href="svg.min.js"/>
<svg id="graph" class="graph">
<g id="graph0" class="graph" transform="scale(1 1) rotate(0) translate(4 216)">
<title>io.github.fruitcropxl.output.schema.ExtendedValidationSchemaFactoryWrapper</title>
<!-- Node1 -->
<g id="Node000001" class="node">
<title>Node1</title>
<g id="a_Node000001"><a xlink:title=" ">
<polygon fill="#999999" stroke="transparent" points="221,-127 0,-127 0,0 221,0 221,-127"/>
<text text-anchor="start" x="5.5" y="-114.5" font-family="Helvetica,sans-Serif" font-size="10.00">io.github.fruitcropxl.output.schema.</text>
<text text-anchor="start" x="5.5" y="-103.5" font-family="Helvetica,sans-Serif" font-size="10.00">ExtendedValidationSchemaFactoryWrapper</text>
<text text-anchor="start" x="23.5" y="-88.5" font-family="Helvetica,sans-Serif" font-size="10.00">&#45;</text>
<text text-anchor="start" x="50.5" y="-88.5" font-family="Helvetica,sans-Serif" font-size="10.00">constraintResolver</text>
<text text-anchor="start" x="21" y="-73.5" font-family="Helvetica,sans-Serif" font-size="10.00">+</text>
<text text-anchor="start" x="50.5" y="-73.5" font-family="Helvetica,sans-Serif" font-size="10.00">ExtendedValidationSchema</text>
<text text-anchor="start" x="50.5" y="-62.5" font-family="Helvetica,sans-Serif" font-size="10.00">FactoryWrapper()</text>
<text text-anchor="start" x="21" y="-47.5" font-family="Helvetica,sans-Serif" font-size="10.00">+</text>
<text text-anchor="start" x="50.5" y="-47.5" font-family="Helvetica,sans-Serif" font-size="10.00">ExtendedValidationSchema</text>
<text text-anchor="start" x="50.5" y="-36.5" font-family="Helvetica,sans-Serif" font-size="10.00">FactoryWrapper()</text>
<text text-anchor="start" x="21" y="-21.5" font-family="Helvetica,sans-Serif" font-size="10.00">+</text>
<text text-anchor="start" x="50.5" y="-21.5" font-family="Helvetica,sans-Serif" font-size="10.00">expectObjectFormat()</text>
<text text-anchor="start" x="21" y="-6.5" font-family="Helvetica,sans-Serif" font-size="10.00">#</text>
<text text-anchor="start" x="50.5" y="-6.5" font-family="Helvetica,sans-Serif" font-size="10.00">addValidationConstraints()</text>
<polygon fill="#666666" stroke="#666666" points="0.5,-98.5 0.5,-98.5 221.5,-98.5 221.5,-98.5 0.5,-98.5"/>
<polygon fill="#666666" stroke="#666666" points="0.5,-83.5 0.5,-83.5 48.5,-83.5 48.5,-83.5 0.5,-83.5"/>
<polygon fill="#666666" stroke="#666666" points="48.5,-83.5 48.5,-83.5 221.5,-83.5 221.5,-83.5 48.5,-83.5"/>
<polygon fill="none" stroke="#666666" points="0,0 0,-127 221,-127 221,0 0,0"/>
</a>
</g>
</g>
<!-- Node2 -->
<g id="Node000002" class="node">
<title>Node2</title>
<g id="a_Node000002"><a xlink:href="classSchemaFactoryWrapper.html" target="_top" xlink:title=" ">
<polygon fill="white" stroke="transparent" points="173.5,-212 47.5,-212 47.5,-163 173.5,-163 173.5,-212"/>
<text text-anchor="start" x="52.5" y="-199.5" font-family="Helvetica,sans-Serif" font-size="10.00">SchemaFactoryWrapper</text>
<text text-anchor="start" x="108.5" y="-184.5" font-family="Helvetica,sans-Serif" font-size="10.00"> </text>
<text text-anchor="start" x="108.5" y="-169.5" font-family="Helvetica,sans-Serif" font-size="10.00"> </text>
<polygon fill="#666666" stroke="#666666" points="47.5,-194.5 47.5,-194.5 173.5,-194.5 173.5,-194.5 47.5,-194.5"/>
<polygon fill="#666666" stroke="#666666" points="47.5,-179.5 47.5,-179.5 173.5,-179.5 173.5,-179.5 47.5,-179.5"/>
<polygon fill="none" stroke="#666666" points="47.5,-163 47.5,-212 173.5,-212 173.5,-163 47.5,-163"/>
</a>
</g>
</g>
<!-- Node2&#45;&gt;Node1 -->
<g id="edge1_Node000001_Node000002" class="edge">
<title>Node2&#45;&gt;Node1</title>
<g id="a_edge1_Node000001_Node000002"><a xlink:title=" ">
<path fill="none" stroke="#63b8ff" d="M110.5,-152.96C110.5,-144.94 110.5,-136.12 110.5,-127.25"/>
<polygon fill="none" stroke="#63b8ff" points="107,-152.98 110.5,-162.98 114,-152.98 107,-152.98"/>
</a>
</g>
</g>
</g>
</svg>
</svg>

<style type='text/css'>
<![CDATA[
[data-mouse-over-selected='false'] { opacity: 0.7; }
[data-mouse-over-selected='true']  { opacity: 1.0; }
]]>
</style>
<script type="application/ecmascript"><![CDATA[
document.addEventListener('DOMContentLoaded', (event) => {
  highlightEdges();
  highlightAdjacentNodes();
});
]]></script>
</svg>
