<?xml version="1.0" encoding="UTF-8" standalone="no"?>
<!DOCTYPE svg PUBLIC "-//W3C//DTD SVG 1.1//EN"
 "http://www.w3.org/Graphics/SVG/1.1/DTD/svg11.dtd">
<!-- Generated by graphviz version 2.43.0 (0)
 -->
<!-- Title: io.github.fruitcropxl.output.schema.ExtendedValidationSchemaFactoryWrapper Pages: 1 -->
<svg width="304pt" height="231pt"
 viewBox="0.00 0.00 304.00 231.00" xmlns="http://www.w3.org/2000/svg" xmlns:xlink="http://www.w3.org/1999/xlink">

<svg id="main" version="1.1" xmlns="http://www.w3.org/2000/svg" xmlns:xlink="http://www.w3.org/1999/xlink" xml:space="preserve" onload="init(evt)">
<style type="text/css"><![CDATA[
.node, .edge {opacity: 0.7;}
.node.selected, .edge.selected {opacity: 1;}
.edge:hover path { stroke: red; }
.edge:hover polygon { stroke: red; fill: red; }
]]></style>
<script type="application/ecmascript" xlink:href="svg.min.js"/>
<svg id="graph" class="graph">
<g id="graph0" class="graph" transform="scale(1 1) rotate(0) translate(4 227)">
<title>io.github.fruitcropxl.output.schema.ExtendedValidationSchemaFactoryWrapper</title>
<!-- Node1 -->
<g id="Node000001" class="node">
<title>Node1</title>
<g id="a_Node000001"><a xlink:title=" ">
<polygon fill="#999999" stroke="transparent" points="251.5,-127 30.5,-127 30.5,0 251.5,0 251.5,-127"/>
<text text-anchor="start" x="36" y="-114.5" font-family="Helvetica,sans-Serif" font-size="10.00">io.github.fruitcropxl.output.schema.</text>
<text text-anchor="start" x="36" y="-103.5" font-family="Helvetica,sans-Serif" font-size="10.00">ExtendedValidationSchemaFactoryWrapper</text>
<text text-anchor="start" x="139.5" y="-88.5" font-family="Helvetica,sans-Serif" font-size="10.00"> </text>
<text text-anchor="start" x="51.5" y="-73.5" font-family="Helvetica,sans-Serif" font-size="10.00">+</text>
<text text-anchor="start" x="81" y="-73.5" font-family="Helvetica,sans-Serif" font-size="10.00">ExtendedValidationSchema</text>
<text text-anchor="start" x="81" y="-62.5" font-family="Helvetica,sans-Serif" font-size="10.00">FactoryWrapper()</text>
<text text-anchor="start" x="51.5" y="-47.5" font-family="Helvetica,sans-Serif" font-size="10.00">+</text>
<text text-anchor="start" x="81" y="-47.5" font-family="Helvetica,sans-Serif" font-size="10.00">ExtendedValidationSchema</text>
<text text-anchor="start" x="81" y="-36.5" font-family="Helvetica,sans-Serif" font-size="10.00">FactoryWrapper()</text>
<text text-anchor="start" x="51.5" y="-21.5" font-family="Helvetica,sans-Serif" font-size="10.00">+</text>
<text text-anchor="start" x="81" y="-21.5" font-family="Helvetica,sans-Serif" font-size="10.00">expectObjectFormat()</text>
<text text-anchor="start" x="51.5" y="-6.5" font-family="Helvetica,sans-Serif" font-size="10.00">#</text>
<text text-anchor="start" x="81" y="-6.5" font-family="Helvetica,sans-Serif" font-size="10.00">addValidationConstraints()</text>
<polygon fill="#666666" stroke="#666666" points="31,-98.5 31,-98.5 252,-98.5 252,-98.5 31,-98.5"/>
<polygon fill="#666666" stroke="#666666" points="31,-83.5 31,-83.5 252,-83.5 252,-83.5 31,-83.5"/>
<polygon fill="none" stroke="#666666" points="30.5,0 30.5,-127 251.5,-127 251.5,0 30.5,0"/>
</a>
</g>
</g>
<!-- Node2 -->
<g id="Node000002" class="node">
<title>Node2</title>
<g id="a_Node000002"><a xlink:href="classSchemaFactoryWrapper.html" target="_top" xlink:title=" ">
<polygon fill="white" stroke="transparent" points="126,-223 0,-223 0,-174 126,-174 126,-223"/>
<text text-anchor="start" x="5" y="-210.5" font-family="Helvetica,sans-Serif" font-size="10.00">SchemaFactoryWrapper</text>
<text text-anchor="start" x="61" y="-195.5" font-family="Helvetica,sans-Serif" font-size="10.00"> </text>
<text text-anchor="start" x="61" y="-180.5" font-family="Helvetica,sans-Serif" font-size="10.00"> </text>
<polygon fill="#666666" stroke="#666666" points="0,-205.5 0,-205.5 126,-205.5 126,-205.5 0,-205.5"/>
<polygon fill="#666666" stroke="#666666" points="0,-190.5 0,-190.5 126,-190.5 126,-190.5 0,-190.5"/>
<polygon fill="none" stroke="#666666" points="0,-174 0,-223 126,-223 126,-174 0,-174"/>
</a>
</g>
</g>
<!-- Node2&#45;&gt;Node1 -->
<g id="edge1_Node000001_Node000002" class="edge">
<title>Node2&#45;&gt;Node1</title>
<g id="a_edge1_Node000001_Node000002"><a xlink:title=" ">
<path fill="none" stroke="#63b8ff" d="M82.07,-164.98C88.79,-153.53 96.57,-140.25 104.25,-127.17"/>
<polygon fill="none" stroke="#63b8ff" points="78.98,-163.33 76.94,-173.72 85.02,-166.87 78.98,-163.33"/>
</a>
</g>
</g>
<!-- Node3 -->
<g id="Node000003" class="node">
<title>Node3</title>
<g id="a_Node000003"><a xlink:title=" ">
<polygon fill="white" stroke="transparent" points="296,-223 144,-223 144,-174 296,-174 296,-223"/>
<text text-anchor="start" x="149" y="-210.5" font-family="Helvetica,sans-Serif" font-size="10.00">ValidationConstraintResolver</text>
<text text-anchor="start" x="218" y="-195.5" font-family="Helvetica,sans-Serif" font-size="10.00"> </text>
<text text-anchor="start" x="218" y="-180.5" font-family="Helvetica,sans-Serif" font-size="10.00"> </text>
<polygon fill="#666666" stroke="#666666" points="144,-205.5 144,-205.5 296,-205.5 296,-205.5 144,-205.5"/>
<polygon fill="#666666" stroke="#666666" points="144,-190.5 144,-190.5 296,-190.5 296,-190.5 144,-190.5"/>
<polygon fill="none" stroke="#666666" points="144,-174 144,-223 296,-223 296,-174 144,-174"/>
</a>
</g>
</g>
<!-- Node3&#45;&gt;Node1 -->
<g id="edge2_Node000001_Node000003" class="edge">
<title>Node3&#45;&gt;Node1</title>
<g id="a_edge2_Node000001_Node000003"><a xlink:title=" ">
<path fill="none" stroke="#63b8ff" d="M205.88,-173.72C199.75,-163.4 192.21,-150.71 184.46,-137.67"/>
<polygon fill="none" stroke="#63b8ff" points="184.35,-137.49 177.85,-134.37 178.23,-127.17 184.73,-130.29 184.35,-137.49"/>
</a>
</g>
<text text-anchor="middle" x="243.5" y="-148" font-family="Helvetica,sans-Serif" font-size="10.00" fill="grey"> &#45;constraintResolver</text>
</g>
</g>
</svg>
</svg>

<style type='text/css'>
<![CDATA[
[data-mouse-over-selected='false'] { opacity: 0.7; }
[data-mouse-over-selected='true']  { opacity: 1.0; }
]]>
</style>
<script type="application/ecmascript"><![CDATA[
document.addEventListener('DOMContentLoaded', (event) => {
  highlightEdges();
  highlightAdjacentNodes();
});
]]></script>
</svg>
