<?xml version="1.0" encoding="UTF-8" standalone="no"?>
<!DOCTYPE svg PUBLIC "-//W3C//DTD SVG 1.1//EN"
 "http://www.w3.org/Graphics/SVG/1.1/DTD/svg11.dtd">
<!-- Generated by graphviz version 2.43.0 (0)
 -->
<!-- Title: io.github.fruitcropxl.output.util.StepwiseCsvWriterTest.testSchemaConfiguration Pages: 1 -->
<svg width="703pt" height="176pt"
 viewBox="0.00 0.00 703.00 176.00" xmlns="http://www.w3.org/2000/svg" xmlns:xlink="http://www.w3.org/1999/xlink">
<g id="graph0" class="graph" transform="scale(1 1) rotate(0) translate(4 172)">
<title>io.github.fruitcropxl.output.util.StepwiseCsvWriterTest.testSchemaConfiguration</title>
<!-- Node1 -->
<g id="Node000001" class="node">
<title>Node1</title>
<g id="a_Node000001"><a xlink:title=" ">
<polygon fill="#999999" stroke="#666666" points="254,-120 0,-120 0,-90 254,-90 254,-120"/>
<text text-anchor="start" x="8" y="-108" font-family="Helvetica,sans-Serif" font-size="10.00">io.github.fruitcropxl.output.util.</text>
<text text-anchor="middle" x="127" y="-97" font-family="Helvetica,sans-Serif" font-size="10.00">StepwiseCsvWriterTest.testSchemaConfiguration</text>
</a>
</g>
</g>
<!-- Node2 -->
<g id="Node000002" class="node">
<title>Node2</title>
<g id="a_Node000002"><a xlink:href="classio_1_1github_1_1fruitcropxl_1_1output_1_1util_1_1StepwiseCsvWriter_a3e22686bbf93720dd20b905c88061583.html#a3e22686bbf93720dd20b905c88061583" target="_top" xlink:title="Delete file if the condition is satisfied.">
<polygon fill="white" stroke="#666666" points="459,-168 290,-168 290,-138 459,-138 459,-168"/>
<text text-anchor="start" x="298" y="-156" font-family="Helvetica,sans-Serif" font-size="10.00">io.github.fruitcropxl.output.util.</text>
<text text-anchor="middle" x="374.5" y="-145" font-family="Helvetica,sans-Serif" font-size="10.00">StepwiseCsvWriter.deleteFileIf</text>
</a>
</g>
</g>
<!-- Node1&#45;&gt;Node2 -->
<g id="edge1_Node000001_Node000002" class="edge">
<title>Node1&#45;&gt;Node2</title>
<g id="a_edge1_Node000001_Node000002"><a xlink:title=" ">
<path fill="none" stroke="#63b8ff" d="M205,-120.06C230.94,-125.13 260.05,-130.82 286.69,-136.03"/>
<polygon fill="#63b8ff" stroke="#63b8ff" points="286.28,-139.51 296.77,-138 287.63,-132.64 286.28,-139.51"/>
</a>
</g>
</g>
<!-- Node3 -->
<g id="Node000003" class="node">
<title>Node3</title>
<g id="a_Node000003"><a xlink:href="classio_1_1github_1_1fruitcropxl_1_1output_1_1util_1_1StepwiseCsvWriter_a078ea2c2a5611733074fe2186426c87e.html#a078ea2c2a5611733074fe2186426c87e" target="_top" xlink:title="Change schema configuration.">
<polygon fill="white" stroke="#666666" points="459,-120 290,-120 290,-90 459,-90 459,-120"/>
<text text-anchor="start" x="298" y="-108" font-family="Helvetica,sans-Serif" font-size="10.00">io.github.fruitcropxl.output.util.</text>
<text text-anchor="middle" x="374.5" y="-97" font-family="Helvetica,sans-Serif" font-size="10.00">StepwiseCsvWriter.setSchema</text>
</a>
</g>
</g>
<!-- Node1&#45;&gt;Node3 -->
<g id="edge2_Node000001_Node000003" class="edge">
<title>Node1&#45;&gt;Node3</title>
<g id="a_edge2_Node000001_Node000003"><a xlink:title=" ">
<path fill="none" stroke="#63b8ff" d="M254.35,-105C262.87,-105 271.36,-105 279.67,-105"/>
<polygon fill="#63b8ff" stroke="#63b8ff" points="279.7,-108.5 289.7,-105 279.7,-101.5 279.7,-108.5"/>
</a>
</g>
</g>
<!-- Node4 -->
<g id="Node000004" class="node">
<title>Node4</title>
<g id="a_Node000004"><a xlink:href="classio_1_1github_1_1fruitcropxl_1_1output_1_1util_1_1StepwiseCsvWriter_ae66619040b769e1790e6384864c7539a.html#ae66619040b769e1790e6384864c7539a" target="_top" xlink:title="Write object to CSV.">
<polygon fill="white" stroke="#666666" points="459,-54 290,-54 290,-24 459,-24 459,-54"/>
<text text-anchor="start" x="298" y="-42" font-family="Helvetica,sans-Serif" font-size="10.00">io.github.fruitcropxl.output.util.</text>
<text text-anchor="middle" x="374.5" y="-31" font-family="Helvetica,sans-Serif" font-size="10.00">StepwiseCsvWriter.write</text>
</a>
</g>
</g>
<!-- Node1&#45;&gt;Node4 -->
<g id="edge3_Node000001_Node000004" class="edge">
<title>Node1&#45;&gt;Node4</title>
<g id="a_edge3_Node000001_Node000004"><a xlink:title=" ">
<path fill="none" stroke="#63b8ff" d="M184.01,-89.94C220.65,-80.09 268.68,-67.18 307.21,-56.82"/>
<polygon fill="#63b8ff" stroke="#63b8ff" points="308.55,-60.08 317.3,-54.11 306.74,-53.32 308.55,-60.08"/>
</a>
</g>
</g>
<!-- Node4&#45;&gt;Node4 -->
<g id="edge6_Node000004_Node000004" class="edge">
<title>Node4&#45;&gt;Node4</title>
<g id="a_edge6_Node000004_Node000004"><a xlink:title=" ">
<path fill="none" stroke="#63b8ff" d="M335.83,-54.28C327.23,-63.41 340.12,-72 374.5,-72 394.91,-72 407.75,-68.97 413.01,-64.6"/>
<polygon fill="#63b8ff" stroke="#63b8ff" points="416.51,-64.33 413.17,-54.28 409.51,-64.22 416.51,-64.33"/>
</a>
</g>
</g>
<!-- Node5 -->
<g id="Node000005" class="node">
<title>Node5</title>
<g id="a_Node000005"><a xlink:href="classio_1_1github_1_1fruitcropxl_1_1output_1_1util_1_1StepwiseCsvWriter_a47e35b0957afadfd5c2a2e0519d4a936.html#a47e35b0957afadfd5c2a2e0519d4a936" target="_top" xlink:title="Returns the CSV header for the schema.">
<polygon fill="white" stroke="#666666" points="679.5,-78 510.5,-78 510.5,-48 679.5,-48 679.5,-78"/>
<text text-anchor="start" x="518.5" y="-66" font-family="Helvetica,sans-Serif" font-size="10.00">io.github.fruitcropxl.output.util.</text>
<text text-anchor="middle" x="595" y="-55" font-family="Helvetica,sans-Serif" font-size="10.00">StepwiseCsvWriter.getHeader</text>
</a>
</g>
</g>
<!-- Node4&#45;&gt;Node5 -->
<g id="edge4_Node000004_Node000005" class="edge">
<title>Node4&#45;&gt;Node5</title>
<g id="a_edge4_Node000004_Node000005"><a xlink:title=" ">
<path fill="none" stroke="#63b8ff" d="M459.04,-48.18C472.39,-49.64 486.27,-51.17 499.84,-52.66"/>
<polygon fill="#63b8ff" stroke="#63b8ff" points="499.82,-56.18 510.14,-53.79 500.59,-49.22 499.82,-56.18"/>
</a>
</g>
</g>
<!-- Node6 -->
<g id="Node000006" class="node">
<title>Node6</title>
<g id="a_Node000006"><a xlink:href="classio_1_1github_1_1fruitcropxl_1_1output_1_1util_1_1StepwiseCsvWriter_af2f1007e507eb245dcb59959126debe9.html#af2f1007e507eb245dcb59959126debe9" target="_top" xlink:title="Returns the object as CSV without a header row.">
<polygon fill="white" stroke="#666666" points="695,-30 495,-30 495,0 695,0 695,-30"/>
<text text-anchor="start" x="503" y="-18" font-family="Helvetica,sans-Serif" font-size="10.00">io.github.fruitcropxl.output.util.</text>
<text text-anchor="middle" x="595" y="-7" font-family="Helvetica,sans-Serif" font-size="10.00">StepwiseCsvWriter.getHeaderlessCsv</text>
</a>
</g>
</g>
<!-- Node4&#45;&gt;Node6 -->
<g id="edge5_Node000004_Node000006" class="edge">
<title>Node4&#45;&gt;Node6</title>
<g id="a_edge5_Node000004_Node000006"><a xlink:title=" ">
<path fill="none" stroke="#63b8ff" d="M459.04,-29.82C467.44,-28.9 476.05,-27.96 484.67,-27.01"/>
<polygon fill="#63b8ff" stroke="#63b8ff" points="485.21,-30.47 494.77,-25.9 484.45,-23.51 485.21,-30.47"/>
</a>
</g>
</g>
</g>
</svg>
