<?xml version="1.0" encoding="UTF-8" standalone="no"?>
<!DOCTYPE svg PUBLIC "-//W3C//DTD SVG 1.1//EN"
 "http://www.w3.org/Graphics/SVG/1.1/DTD/svg11.dtd">
<!-- Generated by graphviz version 2.43.0 (0)
 -->
<!-- Title: io.github.fruitcropxl.output.util.StepwiseCsvWriter.getHeader Pages: 1 -->
<svg width="672pt" height="56pt"
 viewBox="0.00 0.00 672.00 56.00" xmlns="http://www.w3.org/2000/svg" xmlns:xlink="http://www.w3.org/1999/xlink">
<g id="graph0" class="graph" transform="scale(1 1) rotate(0) translate(4 52)">
<title>io.github.fruitcropxl.output.util.StepwiseCsvWriter.getHeader</title>
<!-- Node1 -->
<g id="Node000001" class="node">
<title>Node1</title>
<g id="a_Node000001"><a xlink:title="Returns the CSV header for the schema.">
<polygon fill="#999999" stroke="#666666" points="664,-30 495,-30 495,0 664,0 664,-30"/>
<text text-anchor="start" x="503" y="-18" font-family="Helvetica,sans-Serif" font-size="10.00">io.github.fruitcropxl.output.util.</text>
<text text-anchor="middle" x="579.5" y="-7" font-family="Helvetica,sans-Serif" font-size="10.00">StepwiseCsvWriter.getHeader</text>
</a>
</g>
</g>
<!-- Node2 -->
<g id="Node000002" class="node">
<title>Node2</title>
<g id="a_Node000002"><a xlink:href="classio_1_1github_1_1fruitcropxl_1_1output_1_1util_1_1StepwiseCsvWriter_ae66619040b769e1790e6384864c7539a.html#ae66619040b769e1790e6384864c7539a" target="_top" xlink:title="Write object to CSV.">
<polygon fill="white" stroke="#666666" points="459,-30 290,-30 290,0 459,0 459,-30"/>
<text text-anchor="start" x="298" y="-18" font-family="Helvetica,sans-Serif" font-size="10.00">io.github.fruitcropxl.output.util.</text>
<text text-anchor="middle" x="374.5" y="-7" font-family="Helvetica,sans-Serif" font-size="10.00">StepwiseCsvWriter.write</text>
</a>
</g>
</g>
<!-- Node1&#45;&gt;Node2 -->
<g id="edge1_Node000001_Node000002" class="edge">
<title>Node1&#45;&gt;Node2</title>
<g id="a_edge1_Node000001_Node000002"><a xlink:title=" ">
<path fill="none" stroke="#63b8ff" d="M484.74,-15C476.17,-15 467.52,-15 459.05,-15"/>
<polygon fill="#63b8ff" stroke="#63b8ff" points="484.76,-18.5 494.76,-15 484.76,-11.5 484.76,-18.5"/>
</a>
</g>
</g>
<!-- Node2&#45;&gt;Node2 -->
<g id="edge3_Node000002_Node000002" class="edge">
<title>Node2&#45;&gt;Node2</title>
<g id="a_edge3_Node000002_Node000002"><a xlink:title=" ">
<path fill="none" stroke="#63b8ff" d="M410.21,-40.6C405.33,-44.97 393.43,-48 374.5,-48 342.62,-48 330.67,-39.41 338.64,-30.28"/>
<polygon fill="#63b8ff" stroke="#63b8ff" points="413.71,-40.33 410.36,-30.28 406.71,-40.22 413.71,-40.33"/>
</a>
</g>
</g>
<!-- Node3 -->
<g id="Node000003" class="node">
<title>Node3</title>
<g id="a_Node000003"><a xlink:href="classio_1_1github_1_1fruitcropxl_1_1output_1_1util_1_1StepwiseCsvWriterTest_a0b8d2a971651d0ebf3ca655b5ae6bb2b.html#a0b8d2a971651d0ebf3ca655b5ae6bb2b" target="_top" xlink:title=" ">
<polygon fill="white" stroke="#666666" points="254,-30 0,-30 0,0 254,0 254,-30"/>
<text text-anchor="start" x="8" y="-18" font-family="Helvetica,sans-Serif" font-size="10.00">io.github.fruitcropxl.output.util.</text>
<text text-anchor="middle" x="127" y="-7" font-family="Helvetica,sans-Serif" font-size="10.00">StepwiseCsvWriterTest.testSchemaConfiguration</text>
</a>
</g>
</g>
<!-- Node2&#45;&gt;Node3 -->
<g id="edge2_Node000002_Node000003" class="edge">
<title>Node2&#45;&gt;Node3</title>
<g id="a_edge2_Node000002_Node000003"><a xlink:title=" ">
<path fill="none" stroke="#63b8ff" d="M279.58,-15C271.21,-15 262.64,-15 254.05,-15"/>
<polygon fill="#63b8ff" stroke="#63b8ff" points="279.7,-18.5 289.7,-15 279.7,-11.5 279.7,-18.5"/>
</a>
</g>
</g>
</g>
</svg>
