<?xml version="1.0" encoding="UTF-8" standalone="no"?>
<!DOCTYPE svg PUBLIC "-//W3C//DTD SVG 1.1//EN"
 "http://www.w3.org/Graphics/SVG/1.1/DTD/svg11.dtd">
<!-- Generated by graphviz version 2.43.0 (0)
 -->
<!-- Title: io.github.fruitcropxl.output.schema.ExtendedIntegerSchema Pages: 1 -->
<svg width="294pt" height="197pt"
 viewBox="0.00 0.00 294.00 197.00" xmlns="http://www.w3.org/2000/svg" xmlns:xlink="http://www.w3.org/1999/xlink">

<svg id="main" version="1.1" xmlns="http://www.w3.org/2000/svg" xmlns:xlink="http://www.w3.org/1999/xlink" xml:space="preserve" onload="init(evt)">
<style type="text/css"><![CDATA[
.node, .edge {opacity: 0.7;}
.node.selected, .edge.selected {opacity: 1;}
.edge:hover path { stroke: red; }
.edge:hover polygon { stroke: red; fill: red; }
]]></style>
<script type="application/ecmascript" xlink:href="svg.min.js"/>
<svg id="graph" class="graph">
<g id="graph0" class="graph" transform="scale(1 1) rotate(0) translate(4 193)">
<title>io.github.fruitcropxl.output.schema.ExtendedIntegerSchema</title>
<!-- Node1 -->
<g id="Node000001" class="node">
<title>Node1</title>
<g id="a_Node000001"><a xlink:title=" ">
<polygon fill="#999999" stroke="transparent" points="214.5,-60 29.5,-60 29.5,0 214.5,0 214.5,-60"/>
<text text-anchor="start" x="35" y="-48" font-family="Helvetica,sans-Serif" font-size="10.00">io.github.fruitcropxl.output.schema.</text>
<text text-anchor="start" x="62.5" y="-37" font-family="Helvetica,sans-Serif" font-size="10.00">ExtendedIntegerSchema</text>
<text text-anchor="start" x="120.5" y="-22" font-family="Helvetica,sans-Serif" font-size="10.00"> </text>
<text text-anchor="start" x="43" y="-7" font-family="Helvetica,sans-Serif" font-size="10.00">+</text>
<text text-anchor="start" x="65" y="-7" font-family="Helvetica,sans-Serif" font-size="10.00">enrichWithBeanProperty()</text>
<polygon fill="#666666" stroke="#666666" points="30,-32 30,-32 215,-32 215,-32 30,-32"/>
<polygon fill="#666666" stroke="#666666" points="30,-17 30,-17 215,-17 215,-17 30,-17"/>
<polygon fill="none" stroke="#666666" points="29.5,0 29.5,-60 214.5,-60 214.5,0 29.5,0"/>
</a>
</g>
</g>
<!-- Node2 -->
<g id="Node000002" class="node">
<title>Node2</title>
<g id="a_Node000002"><a xlink:href="classIntegerSchema.html" target="_top" xlink:title=" ">
<polygon fill="white" stroke="transparent" points="84,-189 0,-189 0,-140 84,-140 84,-189"/>
<text text-anchor="start" x="5" y="-176.5" font-family="Helvetica,sans-Serif" font-size="10.00">IntegerSchema</text>
<text text-anchor="start" x="40" y="-161.5" font-family="Helvetica,sans-Serif" font-size="10.00"> </text>
<text text-anchor="start" x="40" y="-146.5" font-family="Helvetica,sans-Serif" font-size="10.00"> </text>
<polygon fill="#666666" stroke="#666666" points="0,-171.5 0,-171.5 84,-171.5 84,-171.5 0,-171.5"/>
<polygon fill="#666666" stroke="#666666" points="0,-156.5 0,-156.5 84,-156.5 84,-156.5 0,-156.5"/>
<polygon fill="none" stroke="#666666" points="0,-140 0,-189 84,-189 84,-140 0,-140"/>
</a>
</g>
</g>
<!-- Node2&#45;&gt;Node1 -->
<g id="edge1_Node000001_Node000002" class="edge">
<title>Node2&#45;&gt;Node1</title>
<g id="a_edge1_Node000001_Node000002"><a xlink:title=" ">
<path fill="none" stroke="#63b8ff" d="M61.48,-131.24C74.6,-109.5 91.77,-81.06 104.47,-60.03"/>
<polygon fill="none" stroke="#63b8ff" points="58.47,-129.44 56.3,-139.81 64.47,-133.06 58.47,-129.44"/>
</a>
</g>
</g>
<!-- Node3 -->
<g id="Node000003" class="node">
<title>Node3</title>
<g id="a_Node000003"><a xlink:title=" ">
<polygon fill="white" stroke="transparent" points="141.5,-189 102.5,-189 102.5,-140 141.5,-140 141.5,-189"/>
<text text-anchor="start" x="108" y="-176.5" font-family="Helvetica,sans-Serif" font-size="10.00">String</text>
<text text-anchor="start" x="120.5" y="-161.5" font-family="Helvetica,sans-Serif" font-size="10.00"> </text>
<text text-anchor="start" x="120.5" y="-146.5" font-family="Helvetica,sans-Serif" font-size="10.00"> </text>
<polygon fill="#666666" stroke="#666666" points="103,-171.5 103,-171.5 142,-171.5 142,-171.5 103,-171.5"/>
<polygon fill="#666666" stroke="#666666" points="103,-156.5 103,-156.5 142,-156.5 142,-156.5 103,-156.5"/>
<polygon fill="none" stroke="#666666" points="102.5,-140 102.5,-189 141.5,-189 141.5,-140 102.5,-140"/>
</a>
</g>
</g>
<!-- Node3&#45;&gt;Node1 -->
<g id="edge2_Node000001_Node000003" class="edge">
<title>Node3&#45;&gt;Node1</title>
<g id="a_edge2_Node000001_Node000003"><a xlink:title=" ">
<path fill="none" stroke="#63b8ff" d="M122,-139.81C122,-121.06 122,-94.41 122,-72.18"/>
<polygon fill="none" stroke="#63b8ff" points="122,-72.03 118,-66.03 122,-60.03 126,-66.03 122,-72.03"/>
</a>
</g>
<text text-anchor="middle" x="158.5" y="-114" font-family="Helvetica,sans-Serif" font-size="10.00" fill="grey"> +name</text>
<text text-anchor="middle" x="158.5" y="-103" font-family="Helvetica,sans-Serif" font-size="10.00" fill="grey">+propertyType</text>
<text text-anchor="middle" x="158.5" y="-92" font-family="Helvetica,sans-Serif" font-size="10.00" fill="grey">+tags</text>
<text text-anchor="middle" x="158.5" y="-81" font-family="Helvetica,sans-Serif" font-size="10.00" fill="grey">+unit</text>
</g>
<!-- Node4 -->
<g id="Node000004" class="node">
<title>Node4</title>
<g id="a_Node000004"><a xlink:title=" ">
<polygon fill="white" stroke="transparent" points="240,-189 196,-189 196,-140 240,-140 240,-189"/>
<text text-anchor="start" x="201" y="-176.5" font-family="Helvetica,sans-Serif" font-size="10.00">double</text>
<text text-anchor="start" x="216" y="-161.5" font-family="Helvetica,sans-Serif" font-size="10.00"> </text>
<text text-anchor="start" x="216" y="-146.5" font-family="Helvetica,sans-Serif" font-size="10.00"> </text>
<polygon fill="#666666" stroke="#666666" points="196,-171.5 196,-171.5 240,-171.5 240,-171.5 196,-171.5"/>
<polygon fill="#666666" stroke="#666666" points="196,-156.5 196,-156.5 240,-156.5 240,-156.5 196,-156.5"/>
<polygon fill="none" stroke="#666666" points="196,-140 196,-189 240,-189 240,-140 196,-140"/>
</a>
</g>
</g>
<!-- Node4&#45;&gt;Node1 -->
<g id="edge3_Node000001_Node000004" class="edge">
<title>Node4&#45;&gt;Node1</title>
<g id="a_edge3_Node000001_Node000004"><a xlink:title=" ">
<path fill="none" stroke="#63b8ff" d="M216.59,-139.74C214.46,-121.37 209.15,-96.1 196,-78 193.51,-74.57 190.68,-71.33 187.63,-68.28"/>
<polygon fill="none" stroke="#63b8ff" points="187.47,-68.15 180.33,-67.16 178.49,-60.19 185.63,-61.17 187.47,-68.15"/>
</a>
</g>
<text text-anchor="middle" x="249.5" y="-97.5" font-family="Helvetica,sans-Serif" font-size="10.00" fill="grey"> +defaultValue</text>
</g>
</g>
</svg>
</svg>

<style type='text/css'>
<![CDATA[
[data-mouse-over-selected='false'] { opacity: 0.7; }
[data-mouse-over-selected='true']  { opacity: 1.0; }
]]>
</style>
<script type="application/ecmascript"><![CDATA[
document.addEventListener('DOMContentLoaded', (event) => {
  highlightEdges();
  highlightAdjacentNodes();
});
]]></script>
</svg>
