<?xml version="1.0" encoding="UTF-8" standalone="no"?>
<!DOCTYPE svg PUBLIC "-//W3C//DTD SVG 1.1//EN"
 "http://www.w3.org/Graphics/SVG/1.1/DTD/svg11.dtd">
<!-- Generated by graphviz version 2.43.0 (0)
 -->
<!-- Title: io.github.fruitcropxl.output.util.StepwiseCsvWriter.write Pages: 1 -->
<svg width="413pt" height="86pt"
 viewBox="0.00 0.00 413.00 86.00" xmlns="http://www.w3.org/2000/svg" xmlns:xlink="http://www.w3.org/1999/xlink">
<g id="graph0" class="graph" transform="scale(1 1) rotate(0) translate(4 82)">
<title>io.github.fruitcropxl.output.util.StepwiseCsvWriter.write</title>
<!-- Node1 -->
<g id="Node000001" class="node">
<title>Node1</title>
<g id="a_Node000001"><a xlink:title="Write object to CSV.">
<polygon fill="#999999" stroke="#666666" points="169,-54 0,-54 0,-24 169,-24 169,-54"/>
<text text-anchor="start" x="8" y="-42" font-family="Helvetica,sans-Serif" font-size="10.00">io.github.fruitcropxl.output.util.</text>
<text text-anchor="middle" x="84.5" y="-31" font-family="Helvetica,sans-Serif" font-size="10.00">StepwiseCsvWriter.write</text>
</a>
</g>
</g>
<!-- Node1&#45;&gt;Node1 -->
<g id="edge3_Node000001_Node000001" class="edge">
<title>Node1&#45;&gt;Node1</title>
<g id="a_edge3_Node000001_Node000001"><a xlink:title=" ">
<path fill="none" stroke="#63b8ff" d="M45.83,-54.28C37.23,-63.41 50.12,-72 84.5,-72 104.91,-72 117.75,-68.97 123.01,-64.6"/>
<polygon fill="#63b8ff" stroke="#63b8ff" points="126.51,-64.33 123.17,-54.28 119.51,-64.22 126.51,-64.33"/>
</a>
</g>
</g>
<!-- Node2 -->
<g id="Node000002" class="node">
<title>Node2</title>
<g id="a_Node000002"><a xlink:href="classio_1_1github_1_1fruitcropxl_1_1output_1_1util_1_1StepwiseCsvWriter_a47e35b0957afadfd5c2a2e0519d4a936.html#a47e35b0957afadfd5c2a2e0519d4a936" target="_top" xlink:title="Returns the CSV header for the schema.">
<polygon fill="white" stroke="#666666" points="389.5,-78 220.5,-78 220.5,-48 389.5,-48 389.5,-78"/>
<text text-anchor="start" x="228.5" y="-66" font-family="Helvetica,sans-Serif" font-size="10.00">io.github.fruitcropxl.output.util.</text>
<text text-anchor="middle" x="305" y="-55" font-family="Helvetica,sans-Serif" font-size="10.00">StepwiseCsvWriter.getHeader</text>
</a>
</g>
</g>
<!-- Node1&#45;&gt;Node2 -->
<g id="edge1_Node000001_Node000002" class="edge">
<title>Node1&#45;&gt;Node2</title>
<g id="a_edge1_Node000001_Node000002"><a xlink:title=" ">
<path fill="none" stroke="#63b8ff" d="M169.04,-48.18C182.39,-49.64 196.27,-51.17 209.84,-52.66"/>
<polygon fill="#63b8ff" stroke="#63b8ff" points="209.82,-56.18 220.14,-53.79 210.59,-49.22 209.82,-56.18"/>
</a>
</g>
</g>
<!-- Node3 -->
<g id="Node000003" class="node">
<title>Node3</title>
<g id="a_Node000003"><a xlink:href="classio_1_1github_1_1fruitcropxl_1_1output_1_1util_1_1StepwiseCsvWriter_af2f1007e507eb245dcb59959126debe9.html#af2f1007e507eb245dcb59959126debe9" target="_top" xlink:title="Returns the object as CSV without a header row.">
<polygon fill="white" stroke="#666666" points="405,-30 205,-30 205,0 405,0 405,-30"/>
<text text-anchor="start" x="213" y="-18" font-family="Helvetica,sans-Serif" font-size="10.00">io.github.fruitcropxl.output.util.</text>
<text text-anchor="middle" x="305" y="-7" font-family="Helvetica,sans-Serif" font-size="10.00">StepwiseCsvWriter.getHeaderlessCsv</text>
</a>
</g>
</g>
<!-- Node1&#45;&gt;Node3 -->
<g id="edge2_Node000001_Node000003" class="edge">
<title>Node1&#45;&gt;Node3</title>
<g id="a_edge2_Node000001_Node000003"><a xlink:title=" ">
<path fill="none" stroke="#63b8ff" d="M169.04,-29.82C177.44,-28.9 186.05,-27.96 194.67,-27.01"/>
<polygon fill="#63b8ff" stroke="#63b8ff" points="195.21,-30.47 204.77,-25.9 194.45,-23.51 195.21,-30.47"/>
</a>
</g>
</g>
</g>
</svg>
