<?xml version="1.0" encoding="UTF-8" standalone="no"?>
<!DOCTYPE svg PUBLIC "-//W3C//DTD SVG 1.1//EN"
 "http://www.w3.org/Graphics/SVG/1.1/DTD/svg11.dtd">
<!-- Generated by graphviz version 2.43.0 (0)
 -->
<!-- Title: io.github.fruitcropxl.output.model.ExtendedFruit Pages: 1 -->
<svg width="265pt" height="261pt"
 viewBox="0.00 0.00 265.00 261.00" xmlns="http://www.w3.org/2000/svg" xmlns:xlink="http://www.w3.org/1999/xlink">
<g id="graph0" class="graph" transform="scale(1 1) rotate(0) translate(4 257)">
<title>io.github.fruitcropxl.output.model.ExtendedFruit</title>
<!-- Node1 -->
<g id="Node000001" class="node">
<title>Node1</title>
<g id="a_Node000001"><a xlink:title=" ">
<polygon fill="#999999" stroke="transparent" points="240,-60 62,-60 62,0 240,0 240,-60"/>
<text text-anchor="start" x="67" y="-48" font-family="Helvetica,sans-Serif" font-size="10.00">io.github.fruitcropxl.output.model.</text>
<text text-anchor="start" x="117" y="-37" font-family="Helvetica,sans-Serif" font-size="10.00">ExtendedFruit</text>
<text text-anchor="start" x="149" y="-22" font-family="Helvetica,sans-Serif" font-size="10.00"> </text>
<text text-anchor="start" x="86" y="-7" font-family="Helvetica,sans-Serif" font-size="10.00">+</text>
<text text-anchor="start" x="119" y="-7" font-family="Helvetica,sans-Serif" font-size="10.00">ExtendedFruit()</text>
<polygon fill="#666666" stroke="#666666" points="62,-32 62,-32 240,-32 240,-32 62,-32"/>
<polygon fill="#666666" stroke="#666666" points="62,-17 62,-17 240,-17 240,-17 62,-17"/>
<polygon fill="none" stroke="#666666" points="62,0 62,-60 240,-60 240,0 62,0"/>
</a>
</g>
</g>
<!-- Node2 -->
<g id="Node000002" class="node">
<title>Node2</title>
<g id="a_Node000002"><a xlink:href="classio_1_1github_1_1fruitcropxl_1_1output_1_1model_1_1Fruit.html" target="_top" xlink:title=" ">
<polygon fill="white" stroke="transparent" points="178,-157 0,-157 0,-97 178,-97 178,-157"/>
<text text-anchor="start" x="5" y="-145" font-family="Helvetica,sans-Serif" font-size="10.00">io.github.fruitcropxl.output.model.</text>
<text text-anchor="start" x="78" y="-134" font-family="Helvetica,sans-Serif" font-size="10.00">Fruit</text>
<text text-anchor="start" x="87" y="-119" font-family="Helvetica,sans-Serif" font-size="10.00"> </text>
<text text-anchor="start" x="35.5" y="-104" font-family="Helvetica,sans-Serif" font-size="10.00">+</text>
<text text-anchor="start" x="80" y="-104" font-family="Helvetica,sans-Serif" font-size="10.00">Fruit()</text>
<polygon fill="#666666" stroke="#666666" points="0,-129 0,-129 178,-129 178,-129 0,-129"/>
<polygon fill="#666666" stroke="#666666" points="0,-114 0,-114 178,-114 178,-114 0,-114"/>
<polygon fill="none" stroke="#666666" points="0,-97 0,-157 178,-157 178,-97 0,-97"/>
</a>
</g>
</g>
<!-- Node2&#45;&gt;Node1 -->
<g id="edge1_Node000001_Node000002" class="edge">
<title>Node2&#45;&gt;Node1</title>
<g id="a_edge1_Node000001_Node000002"><a xlink:title=" ">
<path fill="none" stroke="#63b8ff" d="M113.46,-88.52C119.61,-79.1 126.12,-69.12 131.96,-60.17"/>
<polygon fill="none" stroke="#63b8ff" points="110.47,-86.69 107.94,-96.98 116.34,-90.52 110.47,-86.69"/>
</a>
</g>
</g>
<!-- Node3 -->
<g id="Node000003" class="node">
<title>Node3</title>
<g id="a_Node000003"><a xlink:title=" ">
<polygon fill="white" stroke="transparent" points="100.5,-253 77.5,-253 77.5,-204 100.5,-204 100.5,-253"/>
<text text-anchor="start" x="83" y="-240.5" font-family="Helvetica,sans-Serif" font-size="10.00">int</text>
<text text-anchor="start" x="87.5" y="-225.5" font-family="Helvetica,sans-Serif" font-size="10.00"> </text>
<text text-anchor="start" x="87.5" y="-210.5" font-family="Helvetica,sans-Serif" font-size="10.00"> </text>
<polygon fill="#666666" stroke="#666666" points="78,-235.5 78,-235.5 101,-235.5 101,-235.5 78,-235.5"/>
<polygon fill="#666666" stroke="#666666" points="78,-220.5 78,-220.5 101,-220.5 101,-220.5 78,-220.5"/>
<polygon fill="none" stroke="#666666" points="77.5,-204 77.5,-253 100.5,-253 100.5,-204 77.5,-204"/>
</a>
</g>
</g>
<!-- Node3&#45;&gt;Node2 -->
<g id="edge2_Node000002_Node000003" class="edge">
<title>Node3&#45;&gt;Node2</title>
<g id="a_edge2_Node000002_Node000003"><a xlink:title=" ">
<path fill="none" stroke="#63b8ff" d="M89,-203.92C89,-193.51 89,-180.97 89,-169.1"/>
<polygon fill="none" stroke="#63b8ff" points="89,-169.1 85,-163.1 89,-157.1 93,-163.1 89,-169.1"/>
</a>
</g>
<text text-anchor="middle" x="99.5" y="-178" font-family="Helvetica,sans-Serif" font-size="10.00" fill="grey"> +id</text>
</g>
<!-- Node4 -->
<g id="Node000004" class="node">
<title>Node4</title>
<g id="a_Node000004"><a xlink:title=" ">
<polygon fill="white" stroke="transparent" points="199,-253 155,-253 155,-204 199,-204 199,-253"/>
<text text-anchor="start" x="160" y="-240.5" font-family="Helvetica,sans-Serif" font-size="10.00">double</text>
<text text-anchor="start" x="175" y="-225.5" font-family="Helvetica,sans-Serif" font-size="10.00"> </text>
<text text-anchor="start" x="175" y="-210.5" font-family="Helvetica,sans-Serif" font-size="10.00"> </text>
<polygon fill="#666666" stroke="#666666" points="155,-235.5 155,-235.5 199,-235.5 199,-235.5 155,-235.5"/>
<polygon fill="#666666" stroke="#666666" points="155,-220.5 155,-220.5 199,-220.5 199,-220.5 155,-220.5"/>
<polygon fill="none" stroke="#666666" points="155,-204 155,-253 199,-253 199,-204 155,-204"/>
</a>
</g>
</g>
<!-- Node4&#45;&gt;Node1 -->
<g id="edge4_Node000001_Node000004" class="edge">
<title>Node4&#45;&gt;Node1</title>
<g id="a_edge4_Node000001_Node000004"><a xlink:title=" ">
<path fill="none" stroke="#63b8ff" d="M192.8,-203.79C195.77,-198.18 198.43,-192.06 200,-186 201.22,-181.27 200.4,-179.87 200,-175 197.1,-139.97 198.46,-130.22 187,-97 183.98,-88.25 179.87,-79.28 175.51,-70.89"/>
<polygon fill="none" stroke="#63b8ff" points="175.45,-70.78 169.06,-67.44 169.69,-60.25 176.08,-63.6 175.45,-70.78"/>
</a>
</g>
<text text-anchor="middle" x="227.5" y="-124.5" font-family="Helvetica,sans-Serif" font-size="10.00" fill="grey"> +property2</text>
</g>
<!-- Node4&#45;&gt;Node2 -->
<g id="edge3_Node000002_Node000004" class="edge">
<title>Node4&#45;&gt;Node2</title>
<g id="a_edge3_Node000002_Node000004"><a xlink:title=" ">
<path fill="none" stroke="#63b8ff" d="M156.15,-203.92C146.17,-192.64 133.97,-178.84 122.72,-166.12"/>
<polygon fill="none" stroke="#63b8ff" points="122.69,-166.09 115.72,-164.25 114.74,-157.1 121.71,-158.95 122.69,-166.09"/>
</a>
</g>
<text text-anchor="middle" x="168.5" y="-178" font-family="Helvetica,sans-Serif" font-size="10.00" fill="grey"> +property1</text>
</g>
</g>
</svg>
