<?xml version="1.0" encoding="UTF-8" standalone="no"?>
<!DOCTYPE svg PUBLIC "-//W3C//DTD SVG 1.1//EN"
 "http://www.w3.org/Graphics/SVG/1.1/DTD/svg11.dtd">
<!-- Generated by graphviz version 2.43.0 (0)
 -->
<!-- Title: io.github.fruitcropxl.output.model.ExtendedFruit Pages: 1 -->
<svg width="186pt" height="179pt"
 viewBox="0.00 0.00 186.00 179.00" xmlns="http://www.w3.org/2000/svg" xmlns:xlink="http://www.w3.org/1999/xlink">

<svg id="main" version="1.1" xmlns="http://www.w3.org/2000/svg" xmlns:xlink="http://www.w3.org/1999/xlink" xml:space="preserve" onload="init(evt)">
<style type="text/css"><![CDATA[
.node, .edge {opacity: 0.7;}
.node.selected, .edge.selected {opacity: 1;}
.edge:hover path { stroke: red; }
.edge:hover polygon { stroke: red; fill: red; }
]]></style>
<script type="application/ecmascript" xlink:href="svg.min.js"/>
<svg id="graph" class="graph">
<g id="graph0" class="graph" transform="scale(1 1) rotate(0) translate(4 175)">
<title>io.github.fruitcropxl.output.model.ExtendedFruit</title>
<!-- Node1 -->
<g id="Node000001" class="node">
<title>Node1</title>
<g id="a_Node000001"><a xlink:title=" ">
<polygon fill="#999999" stroke="transparent" points="178,-60 0,-60 0,0 178,0 178,-60"/>
<text text-anchor="start" x="5" y="-48" font-family="Helvetica,sans-Serif" font-size="10.00">io.github.fruitcropxl.output.model.</text>
<text text-anchor="start" x="55" y="-37" font-family="Helvetica,sans-Serif" font-size="10.00">ExtendedFruit</text>
<text text-anchor="start" x="24" y="-22" font-family="Helvetica,sans-Serif" font-size="10.00">+</text>
<text text-anchor="start" x="57" y="-22" font-family="Helvetica,sans-Serif" font-size="10.00">property2</text>
<text text-anchor="start" x="24" y="-7" font-family="Helvetica,sans-Serif" font-size="10.00">+</text>
<text text-anchor="start" x="57" y="-7" font-family="Helvetica,sans-Serif" font-size="10.00">ExtendedFruit()</text>
<polygon fill="#666666" stroke="#666666" points="0,-32 0,-32 178,-32 178,-32 0,-32"/>
<polygon fill="#666666" stroke="#666666" points="0,-17 0,-17 55,-17 55,-17 0,-17"/>
<polygon fill="#666666" stroke="#666666" points="55,-17 55,-17 178,-17 178,-17 55,-17"/>
<polygon fill="none" stroke="#666666" points="0,0 0,-60 178,-60 178,0 0,0"/>
</a>
</g>
</g>
<!-- Node2 -->
<g id="Node000002" class="node">
<title>Node2</title>
<g id="a_Node000002"><a xlink:href="classio_1_1github_1_1fruitcropxl_1_1output_1_1model_1_1Fruit.html" target="_top" xlink:title=" ">
<polygon fill="white" stroke="transparent" points="178,-171 0,-171 0,-96 178,-96 178,-171"/>
<text text-anchor="start" x="5" y="-158.5" font-family="Helvetica,sans-Serif" font-size="10.00">io.github.fruitcropxl.output.model.</text>
<text text-anchor="start" x="78" y="-147.5" font-family="Helvetica,sans-Serif" font-size="10.00">Fruit</text>
<text text-anchor="start" x="31" y="-132.5" font-family="Helvetica,sans-Serif" font-size="10.00">+</text>
<text text-anchor="start" x="71" y="-132.5" font-family="Helvetica,sans-Serif" font-size="10.00">id</text>
<text text-anchor="start" x="31" y="-117.5" font-family="Helvetica,sans-Serif" font-size="10.00">+</text>
<text text-anchor="start" x="71" y="-117.5" font-family="Helvetica,sans-Serif" font-size="10.00">property1</text>
<text text-anchor="start" x="31" y="-102.5" font-family="Helvetica,sans-Serif" font-size="10.00">+</text>
<text text-anchor="start" x="71" y="-102.5" font-family="Helvetica,sans-Serif" font-size="10.00">Fruit()</text>
<polygon fill="#666666" stroke="#666666" points="0,-142.5 0,-142.5 178,-142.5 178,-142.5 0,-142.5"/>
<polygon fill="#666666" stroke="#666666" points="0,-112.5 0,-112.5 69,-112.5 69,-112.5 0,-112.5"/>
<polygon fill="#666666" stroke="#666666" points="69,-112.5 69,-112.5 178,-112.5 178,-112.5 69,-112.5"/>
<polygon fill="none" stroke="#666666" points="0,-96 0,-171 178,-171 178,-96 0,-96"/>
</a>
</g>
</g>
<!-- Node2&#45;&gt;Node1 -->
<g id="edge1_Node000001_Node000002" class="edge">
<title>Node2&#45;&gt;Node1</title>
<g id="a_edge1_Node000001_Node000002"><a xlink:title=" ">
<path fill="none" stroke="#63b8ff" d="M89,-85.79C89,-77.1 89,-68.25 89,-60.27"/>
<polygon fill="none" stroke="#63b8ff" points="85.5,-85.86 89,-95.86 92.5,-85.86 85.5,-85.86"/>
</a>
</g>
</g>
</g>
</svg>
</svg>

<style type='text/css'>
<![CDATA[
[data-mouse-over-selected='false'] { opacity: 0.7; }
[data-mouse-over-selected='true']  { opacity: 1.0; }
]]>
</style>
<script type="application/ecmascript"><![CDATA[
document.addEventListener('DOMContentLoaded', (event) => {
  highlightEdges();
  highlightAdjacentNodes();
});
]]></script>
</svg>
