<?xml version="1.0" encoding="UTF-8" standalone="no"?>
<!DOCTYPE svg PUBLIC "-//W3C//DTD SVG 1.1//EN"
 "http://www.w3.org/Graphics/SVG/1.1/DTD/svg11.dtd">
<!-- Generated by graphviz version 2.43.0 (0)
 -->
<!-- Title: io.github.fruitcropxl.output.util.StepwiseCsvWriter Pages: 1 -->
<svg width="209pt" height="239pt"
 viewBox="0.00 0.00 208.50 239.00" xmlns="http://www.w3.org/2000/svg" xmlns:xlink="http://www.w3.org/1999/xlink">
<g id="graph0" class="graph" transform="scale(1 1) rotate(0) translate(4 235)">
<title>io.github.fruitcropxl.output.util.StepwiseCsvWriter</title>
<!-- Node1 -->
<g id="Node000001" class="node">
<title>Node1</title>
<g id="a_Node000001"><a xlink:title="Handles writing properties of POJO types to a CSV file each time step.">
<polygon fill="#999999" stroke="transparent" points="163,-135 0,-135 0,0 163,0 163,-135"/>
<text text-anchor="start" x="5.5" y="-122.5" font-family="Helvetica,sans-Serif" font-size="10.00">io.github.fruitcropxl.output.util.</text>
<text text-anchor="start" x="35.5" y="-111.5" font-family="Helvetica,sans-Serif" font-size="10.00">StepwiseCsvWriter</text>
<text text-anchor="start" x="80" y="-96.5" font-family="Helvetica,sans-Serif" font-size="10.00"> </text>
<text text-anchor="start" x="15" y="-81.5" font-family="Helvetica,sans-Serif" font-size="10.00">+</text>
<text text-anchor="start" x="38.5" y="-81.5" font-family="Helvetica,sans-Serif" font-size="10.00">StepwiseCsvWriter()</text>
<text text-anchor="start" x="15" y="-66.5" font-family="Helvetica,sans-Serif" font-size="10.00">+</text>
<text text-anchor="start" x="38.5" y="-66.5" font-family="Helvetica,sans-Serif" font-size="10.00">setSchema()</text>
<text text-anchor="start" x="15" y="-51.5" font-family="Helvetica,sans-Serif" font-size="10.00">+</text>
<text text-anchor="start" x="38.5" y="-51.5" font-family="Helvetica,sans-Serif" font-size="10.00">deleteFileIf()</text>
<text text-anchor="start" x="15" y="-36.5" font-family="Helvetica,sans-Serif" font-size="10.00">+</text>
<text text-anchor="start" x="38.5" y="-36.5" font-family="Helvetica,sans-Serif" font-size="10.00">write()</text>
<text text-anchor="start" x="17.5" y="-21.5" font-family="Helvetica,sans-Serif" font-size="10.00">&#45;</text>
<text text-anchor="start" x="38.5" y="-21.5" font-family="Helvetica,sans-Serif" font-size="10.00">getHeader()</text>
<text text-anchor="start" x="17.5" y="-6.5" font-family="Helvetica,sans-Serif" font-size="10.00">&#45;</text>
<text text-anchor="start" x="38.5" y="-6.5" font-family="Helvetica,sans-Serif" font-size="10.00">getHeaderlessCsv()</text>
<polygon fill="#666666" stroke="#666666" points="0.5,-106.5 0.5,-106.5 163.5,-106.5 163.5,-106.5 0.5,-106.5"/>
<polygon fill="#666666" stroke="#666666" points="0.5,-91.5 0.5,-91.5 163.5,-91.5 163.5,-91.5 0.5,-91.5"/>
<polygon fill="none" stroke="#666666" points="0,0 0,-135 163,-135 163,0 0,0"/>
</a>
</g>
</g>
<!-- Node2 -->
<g id="Node000002" class="node">
<title>Node2</title>
<g id="a_Node000002"><a xlink:title=" ">
<polygon fill="white" stroke="transparent" points="30.5,-231 2.5,-231 2.5,-182 30.5,-182 30.5,-231"/>
<text text-anchor="start" x="7.5" y="-218.5" font-family="Helvetica,sans-Serif" font-size="10.00">File</text>
<text text-anchor="start" x="14.5" y="-203.5" font-family="Helvetica,sans-Serif" font-size="10.00"> </text>
<text text-anchor="start" x="14.5" y="-188.5" font-family="Helvetica,sans-Serif" font-size="10.00"> </text>
<polygon fill="#666666" stroke="#666666" points="2.5,-213.5 2.5,-213.5 30.5,-213.5 30.5,-213.5 2.5,-213.5"/>
<polygon fill="#666666" stroke="#666666" points="2.5,-198.5 2.5,-198.5 30.5,-198.5 30.5,-198.5 2.5,-198.5"/>
<polygon fill="none" stroke="#666666" points="2.5,-182 2.5,-231 30.5,-231 30.5,-182 2.5,-182"/>
</a>
</g>
</g>
<!-- Node2&#45;&gt;Node1 -->
<g id="edge1_Node000001_Node000002" class="edge">
<title>Node2&#45;&gt;Node1</title>
<g id="a_edge1_Node000001_Node000002"><a xlink:title=" ">
<path fill="none" stroke="#63b8ff" d="M27.67,-181.95C32.52,-171.73 38.51,-159.12 44.7,-146.06"/>
<polygon fill="none" stroke="#63b8ff" points="44.79,-145.87 43.75,-138.73 49.94,-135.03 50.98,-142.16 44.79,-145.87"/>
</a>
</g>
<text text-anchor="middle" x="52.5" y="-156" font-family="Helvetica,sans-Serif" font-size="10.00" fill="grey"> &#45;file</text>
</g>
<!-- Node3 -->
<g id="Node000003" class="node">
<title>Node3</title>
<g id="a_Node000003"><a xlink:title=" ">
<polygon fill="white" stroke="transparent" points="114,-231 49,-231 49,-182 114,-182 114,-231"/>
<text text-anchor="start" x="54.5" y="-218.5" font-family="Helvetica,sans-Serif" font-size="10.00">CsvMapper</text>
<text text-anchor="start" x="80" y="-203.5" font-family="Helvetica,sans-Serif" font-size="10.00"> </text>
<text text-anchor="start" x="80" y="-188.5" font-family="Helvetica,sans-Serif" font-size="10.00"> </text>
<polygon fill="#666666" stroke="#666666" points="49.5,-213.5 49.5,-213.5 114.5,-213.5 114.5,-213.5 49.5,-213.5"/>
<polygon fill="#666666" stroke="#666666" points="49.5,-198.5 49.5,-198.5 114.5,-198.5 114.5,-198.5 49.5,-198.5"/>
<polygon fill="none" stroke="#666666" points="49,-182 49,-231 114,-231 114,-182 49,-182"/>
</a>
</g>
</g>
<!-- Node3&#45;&gt;Node1 -->
<g id="edge2_Node000001_Node000003" class="edge">
<title>Node3&#45;&gt;Node1</title>
<g id="a_edge2_Node000001_Node000003"><a xlink:title=" ">
<path fill="none" stroke="#63b8ff" d="M81.5,-181.95C81.5,-172.03 81.5,-159.87 81.5,-147.23"/>
<polygon fill="none" stroke="#63b8ff" points="81.5,-147.03 77.5,-141.03 81.5,-135.03 85.5,-141.03 81.5,-147.03"/>
</a>
</g>
<text text-anchor="middle" x="104" y="-156" font-family="Helvetica,sans-Serif" font-size="10.00" fill="grey"> &#45;mapper</text>
</g>
<!-- Node4 -->
<g id="Node000004" class="node">
<title>Node4</title>
<g id="a_Node000004"><a xlink:title=" ">
<polygon fill="white" stroke="transparent" points="200.5,-231 132.5,-231 132.5,-182 200.5,-182 200.5,-231"/>
<text text-anchor="start" x="137.5" y="-218.5" font-family="Helvetica,sans-Serif" font-size="10.00">CsvSchema</text>
<text text-anchor="start" x="164.5" y="-203.5" font-family="Helvetica,sans-Serif" font-size="10.00"> </text>
<text text-anchor="start" x="164.5" y="-188.5" font-family="Helvetica,sans-Serif" font-size="10.00"> </text>
<polygon fill="#666666" stroke="#666666" points="132.5,-213.5 132.5,-213.5 200.5,-213.5 200.5,-213.5 132.5,-213.5"/>
<polygon fill="#666666" stroke="#666666" points="132.5,-198.5 132.5,-198.5 200.5,-198.5 200.5,-198.5 132.5,-198.5"/>
<polygon fill="none" stroke="#666666" points="132.5,-182 132.5,-231 200.5,-231 200.5,-182 132.5,-182"/>
</a>
</g>
</g>
<!-- Node4&#45;&gt;Node1 -->
<g id="edge3_Node000001_Node000004" class="edge">
<title>Node4&#45;&gt;Node1</title>
<g id="a_edge3_Node000001_Node000004"><a xlink:title=" ">
<path fill="none" stroke="#63b8ff" d="M151.89,-181.95C145.42,-171.52 137.41,-158.61 129.13,-145.28"/>
<polygon fill="none" stroke="#63b8ff" points="129.1,-145.23 122.54,-142.24 122.78,-135.03 129.34,-138.02 129.1,-145.23"/>
</a>
</g>
<text text-anchor="middle" x="161.5" y="-156" font-family="Helvetica,sans-Serif" font-size="10.00" fill="grey"> &#45;schema</text>
</g>
</g>
</svg>
